<?xml version="1.0" encoding="UTF-8" standalone="no"?>
<svg width="13px" height="14px" viewBox="0 0 13 14" version="1.1" xmlns="http://www.w3.org/2000/svg" xmlns:xlink="http://www.w3.org/1999/xlink">
    <!-- Generator: Sketch 42 (36781) - http://www.bohemiancoding.com/sketch -->
    <title>Fill 1</title>
    <desc>Created with Sketch.</desc>
    <defs></defs>
    <g id="Page-1" stroke="none" stroke-width="1" fill="none" fill-rule="evenodd">
        <g id="项目" transform="translate(-399.000000, -312.000000)" fill="#909FA7">
            <g id="Group-11" transform="translate(215.000000, 286.000000)">
                <path d="M188.811783,28.9949543 C188.482522,28.9949543 188.215607,29.2628299 188.215607,29.5939604 L188.221171,37.1047411 C188.221171,37.435259 188.488086,37.7037473 188.817347,37.7037473 C189.146532,37.7037473 189.413446,37.435259 189.413446,37.1047411 L189.407959,29.5939604 C189.407959,29.2628299 189.140968,28.9949543 188.811783,28.9949543 L188.811783,28.9949543 Z M194.18774,37.3148757 L194.188473,38.2977758 L194.179042,38.2977758 L194.18774,37.3148757 Z M195.946533,27.2160851 L191.199382,27.2183059 L191.196715,26.5990062 C191.196715,26.2679523 190.9298,26 190.600234,26 C190.4917,26 190.389949,26.02933 190.302299,26.0802555 C190.214572,26.02933 190.112745,26 190.004058,26 C189.674874,26 189.407959,26.2679523 189.407959,26.5990062 L189.410703,27.2191483 L185.985169,27.2207565 C185.937076,27.2081974 185.886696,27.201535 185.834715,27.201535 C185.782582,27.201535 185.73205,27.208274 185.68388,27.2209097 L184.596176,27.2214457 C184.266915,27.2214457 184,27.489934 184,27.8203753 C184,28.1515058 184.266915,28.4193815 184.596176,28.4193815 L185.238921,28.4190751 L185.243265,37.6610158 L185.244103,37.6610158 L185.244103,38.2974695 C185.244103,38.9590412 185.778009,39.4954818 186.436455,39.4954818 L187.032631,39.4954818 L187.032631,39.5 L193.590335,39.496171 L193.590335,39.4954818 L194.186511,39.4954818 C194.836496,39.4954818 195.364762,38.9726724 195.378253,38.3228939 L195.373375,29.5974831 C195.373375,29.2663526 195.10646,28.9984769 194.777199,28.9984769 C194.447938,28.9984769 194.181023,29.2663526 194.181023,29.5974831 L194.185291,37.2153988 C194.164331,38.1175072 193.908468,38.2828428 192.994464,38.2828428 L193.613429,38.2981587 L186.848412,38.3021408 L187.628501,38.2828428 C186.694833,38.2828428 186.447888,38.1105385 186.436607,37.1564324 L186.443924,38.3023706 L186.435845,38.3023706 L186.431196,28.4185391 L189.956575,28.4168543 C189.974105,28.4183859 189.991711,28.4193815 190.009622,28.4193815 C190.027686,28.4193815 190.045597,28.4183859 190.06328,28.4168543 L190.549168,28.4166246 C190.567841,28.4183859 190.586667,28.4193815 190.605798,28.4193815 C190.625157,28.4193815 190.644212,28.4183859 190.663114,28.416548 L195.946456,28.4140975 C196.275717,28.4140975 196.542708,28.1462218 196.542708,27.8150913 C196.542708,27.4840374 196.275717,27.2160851 195.946533,27.2160851 L195.946533,27.2160851 Z M191.792586,28.9949543 C191.463325,28.9949543 191.19641,29.2628299 191.19641,29.5939604 L191.201974,37.1047411 C191.201974,37.435259 191.468888,37.7037473 191.798073,37.7037473 C192.127334,37.7037473 192.394249,37.435259 192.394249,37.1047411 L192.389066,29.5939604 C192.389066,29.2628299 192.122151,28.9949543 191.792586,28.9949543 L191.792586,28.9949543 Z M186.436779,37.1838425 L186.43615,37.0848304 C186.43615,37.118611 186.43636,37.1514386 186.436779,37.1838425 L186.436779,37.1838425 Z" id="Fill-1"></path>
            </g>
        </g>
    </g>
</svg>