<?xml version="1.0" encoding="UTF-8" standalone="no"?>
<svg width="12px" height="16px" viewBox="0 0 12 16" version="1.1" xmlns="http://www.w3.org/2000/svg" xmlns:xlink="http://www.w3.org/1999/xlink">
    <!-- Generator: Sketch 42 (36781) - http://www.bohemiancoding.com/sketch -->
    <title>Shape</title>
    <desc>Created with Sketch.</desc>
    <defs></defs>
    <g id="Page-1" stroke="none" stroke-width="1" fill="none" fill-rule="evenodd">
        <g id="项目" transform="translate(-286.000000, -371.000000)" fill="#EEAD98">
            <path d="M291.810597,371.566046 C291.832861,371.566046 291.86064,371.554914 291.894057,371.532712 C291.96083,371.488245 292.049784,371.410341 292.161023,371.299101 C292.294526,371.176751 292.428051,371.087693 292.561471,371.032074 C292.694995,370.976475 292.872986,370.993163 293.095444,371.082117 C293.206683,371.115534 293.29572,371.162799 293.362471,371.223995 C293.429223,371.285191 293.493197,371.343589 293.55431,371.399188 C293.615506,371.454807 293.682258,371.502072 293.754586,371.541066 C293.826914,371.579977 293.918667,371.599464 294.029885,371.599464 C294.141124,371.599464 294.235717,371.582755 294.313601,371.549358 C294.391423,371.516024 294.466529,371.485467 294.538857,371.457627 C294.611102,371.429848 294.683431,371.410341 294.755738,371.399208 C294.828066,371.388076 294.914242,371.399208 295.014432,371.432543 C295.125671,371.477113 295.200694,371.541066 295.239667,371.624464 C295.278578,371.707946 295.289711,371.794101 295.273002,371.883138 C295.256293,371.972092 295.217403,372.061149 295.156207,372.150103 C295.095011,372.23914 295.019905,372.311386 294.930951,372.367067 C294.719626,372.500509 294.558261,372.63679 294.447022,372.77587 C294.335782,372.914888 294.224543,373.062322 294.113304,373.218028 C294.057705,373.295932 293.996509,373.384886 293.929758,373.484993 C293.862985,373.585162 293.801789,373.685269 293.74619,373.785355 C293.679439,373.907727 293.607193,374.024522 293.529309,374.135761 L290.075217,374.135761 C289.997333,374.002319 289.919511,373.874392 289.841627,373.752 C289.774855,373.640761 289.702527,373.529522 289.624726,373.418283 C289.546842,373.306982 289.48009,373.206896 289.42445,373.117921 C289.313211,372.951083 289.188061,372.803649 289.048981,372.67568 C288.909964,372.547732 288.773682,372.433736 288.640158,372.333629 C288.495605,372.233543 288.395478,372.097241 288.339796,371.924827 C288.284197,371.752391 288.334323,371.605061 288.490008,371.482669 C288.567892,371.42707 288.656867,371.404785 288.756974,371.415917 C288.857143,371.42707 288.962805,371.449231 289.074044,371.482669 C289.185284,371.516024 289.293724,371.549358 289.399407,371.582755 C289.505153,371.616089 289.602441,371.621666 289.691415,371.599464 C289.847204,371.566067 289.963999,371.50767 290.04182,371.424271 C290.119704,371.34079 290.253229,371.237905 290.442352,371.115555 C290.586905,371.026518 290.748187,370.995961 290.926198,371.023719 C291.104189,371.05156 291.237713,371.109958 291.32673,371.198912 C291.371196,371.254614 291.418482,371.301879 291.468525,371.34079 C291.518568,371.379701 291.571389,371.415917 291.627009,371.449231 C291.682649,371.493718 291.743845,371.532691 291.810597,371.566046 L291.810597,371.566046 L291.810597,371.566046 Z M293.696168,374.903323 C293.829692,375.081314 293.99653,375.276013 294.196806,375.487339 C294.363644,375.676462 294.569414,375.890565 294.814177,376.129752 C295.05892,376.368918 295.342573,376.622035 295.665137,376.88898 C295.932165,377.122591 296.207464,377.397973 296.491118,377.714961 C296.774833,378.032031 297.022312,378.401923 297.233721,378.824595 C297.445046,379.247328 297.59248,379.734056 297.675878,380.284654 C297.759339,380.835336 297.745429,381.449908 297.63419,382.128558 C297.534104,382.684712 297.336626,383.210351 297.04182,383.705412 C296.747013,384.200453 296.354919,384.631479 295.865413,384.998613 C295.375928,385.365727 294.79469,385.657735 294.121721,385.874658 C293.448668,386.091539 292.683863,386.2 291.827326,386.2 C290.948504,386.2 290.169789,386.074934 289.491222,385.824614 C288.812614,385.574295 288.236932,385.248932 287.764135,384.848401 C287.291337,384.447953 286.915973,384.000219 286.637854,383.505157 C286.359694,383.010157 286.176127,382.517894 286.087173,382.028451 C285.987087,381.483346 285.973177,380.960526 286.045484,380.459888 C286.11773,379.959312 286.248455,379.489313 286.437599,379.049871 C286.626743,378.610512 286.863131,378.207265 287.146785,377.840131 C287.430438,377.473017 287.739155,377.144897 288.072872,376.855646 C288.362102,376.599771 288.623553,376.357806 288.857163,376.129772 C289.090753,375.901718 289.28539,375.69317 289.441158,375.504047 C289.630219,375.292722 289.79714,375.092446 289.941734,374.903323 L293.696168,374.903323 L293.696168,374.903323 L293.696168,374.903323 Z M291.927412,380.026064 L291.4769,379.575469 L291.126495,379.225064 C291.015256,379.113824 290.937372,379.030447 290.892885,378.974807 C290.803848,378.896923 290.687032,378.832949 290.542479,378.782906 C290.397823,378.732863 290.275431,378.763419 290.175345,378.874638 C290.086391,378.997009 290.064106,379.116602 290.108593,379.233418 C290.153163,379.350213 290.203206,379.442048 290.258826,379.508779 L290.509062,379.74239 C290.631433,379.875831 290.764958,380.020467 290.909593,380.176193 C291.076452,380.354184 291.259998,380.543307 291.460192,380.743583 L291.443566,381.093988 L290.308869,381.093988 C290.208783,381.093988 290.122524,381.13292 290.050196,381.210804 C289.97795,381.288605 289.941755,381.372086 289.941755,381.46104 C289.941755,381.550077 289.975152,381.627878 290.041841,381.69465 C290.108593,381.761402 290.19763,381.794819 290.308869,381.794819 L291.443566,381.794819 L291.443566,382.378835 L290.308869,382.378835 C290.208783,382.378835 290.122524,382.409392 290.050196,382.470588 C289.97795,382.531763 289.941755,382.612446 289.941755,382.712532 C289.930602,382.801506 289.961242,382.876612 290.033549,382.937788 C290.105794,382.998984 290.19763,383.029623 290.308869,383.029623 L291.443566,383.029623 L291.443566,383.363341 C291.454636,383.519046 291.504679,383.627487 291.593716,383.688683 C291.68267,383.749879 291.793992,383.780498 291.927433,383.780498 C292.060957,383.79163 292.169398,383.749858 292.252879,383.655348 C292.336256,383.560735 292.378028,383.463427 292.378028,383.363341 L292.378028,383.029644 L293.54608,383.029644 C293.657319,383.029644 293.749051,383.00456 293.821359,382.954517 C293.893687,382.904474 293.924243,382.823792 293.913111,382.712552 C293.913111,382.478963 293.757405,382.362147 293.445911,382.362147 L292.378028,382.362147 L292.394675,381.79484 L293.479328,381.778111 C293.635034,381.789243 293.746273,381.758624 293.813025,381.686317 C293.879797,381.614071 293.913111,381.527812 293.913111,381.427706 C293.913111,381.338669 293.876999,381.258069 293.804671,381.185741 C293.732342,381.113433 293.618325,381.0773 293.46262,381.0773 L292.378049,381.0773 L292.378049,380.76023 C292.567089,380.582218 292.739524,380.409824 292.895334,380.242966 C293.028754,380.109462 293.162278,379.973243 293.295782,379.834163 C293.429285,379.695083 293.529392,379.597754 293.596144,379.542155 C293.851936,379.319677 293.907576,379.124998 293.762982,378.95814 C293.685098,378.858053 293.584991,378.80799 293.46262,378.80799 C293.340248,378.80799 293.229009,378.852477 293.128902,378.941431 C293.073304,378.98598 292.97869,379.06658 292.84527,379.183396 C292.711745,379.30019 292.578221,379.419784 292.444738,379.542155 C292.28895,379.686812 292.116535,379.848094 291.927412,380.026064 L291.927412,380.026064 L291.927412,380.026064 Z" id="Shape"></path>
        </g>
    </g>
</svg>