<?xml version="1.0" encoding="UTF-8" standalone="no"?>
<svg width="15px" height="15px" viewBox="0 0 15 15" version="1.1" xmlns="http://www.w3.org/2000/svg" xmlns:xlink="http://www.w3.org/1999/xlink">
    <!-- Generator: Sketch 42 (36781) - http://www.bohemiancoding.com/sketch -->
    <title>Fill 1</title>
    <desc>Created with Sketch.</desc>
    <defs></defs>
    <g id="Page-1" stroke="none" stroke-width="1" fill="none" fill-rule="evenodd">
        <g id="项目" transform="translate(-377.000000, -311.000000)" fill="#909FA7">
            <g id="Group-11" transform="translate(215.000000, 286.000000)">
                <path d="M172.155793,32.9677415 L169.980074,32.9677415 L169.980074,35.1434609 C169.980074,35.5436483 169.656011,35.8677111 169.255824,35.8677111 L169.254377,35.8677111 C168.85419,35.8677111 168.530051,35.5436483 168.530051,35.1434609 L168.530051,32.9677415 L166.354331,32.9677415 C165.954144,32.9677415 165.630081,32.6436788 165.630081,32.2434913 L165.630081,32.242045 C165.630081,31.8418575 165.954144,31.5177187 166.354331,31.5177187 L168.530051,31.5177187 L168.530051,29.3419993 C168.530051,28.9418119 168.85419,28.6177491 169.254377,28.6177491 L169.255824,28.6177491 C169.656011,28.6177491 169.980074,28.9418119 169.980074,29.3419993 L169.980074,31.5177187 L172.155793,31.5177187 C172.555981,31.5177187 172.880043,31.8418575 172.880043,32.242045 L172.880043,32.2434913 C172.880043,32.6436788 172.555981,32.9677415 172.155793,32.9677415 M169.209387,26.3521265 C165.956352,26.3521265 163.432666,28.9896943 163.432666,32.2427301 C163.432666,35.495842 165.956352,38.0427453 169.209387,38.0427453 C172.463185,38.0427453 175.100752,35.495842 175.100752,32.2427301 C175.100752,28.9896943 172.463185,26.3521265 169.209387,26.3521265 M169.250038,39.5 C165.24588,39.5 162,36.2534348 162,32.2499619 C162,28.245804 165.24588,25 169.250038,25 C173.254196,25 176.5,28.245804 176.5,32.2499619 C176.5,36.2534348 173.254196,39.5 169.250038,39.5" id="Fill-1"></path>
            </g>
        </g>
    </g>
</svg>