<?xml version="1.0" encoding="UTF-8" standalone="no"?>
<svg width="11px" height="14px" viewBox="0 0 11 14" version="1.1" xmlns="http://www.w3.org/2000/svg" xmlns:xlink="http://www.w3.org/1999/xlink">
    <!-- Generator: Sketch 42 (36781) - http://www.bohemiancoding.com/sketch -->
    <title>Shape</title>
    <desc>Created with Sketch.</desc>
    <defs></defs>
    <g id="Page-1" stroke="none" stroke-width="1" fill="none" fill-rule="evenodd">
        <g id="医品" transform="translate(-302.000000, -372.000000)" fill="#98BEEE">
            <g id="Group-11" transform="translate(216.000000, 281.000000)">
                <g id="Group-21" transform="translate(86.000000, 91.250000)">
                    <path d="M1.88871224,2.60572337 C1.7254902,2.60572337 1.60307366,2.57657658 1.52146264,2.51828299 C1.43985162,2.4599894 1.38155803,2.3900371 1.34658188,2.30842607 C1.29994701,2.21515633 1.27662957,2.11022787 1.27662957,1.9936407 L1.27662957,0.839427663 C1.27662957,0.61791203 1.32034976,0.451775305 1.40779014,0.341017488 C1.49523052,0.230259671 1.59141494,0.145733969 1.6963434,0.0874403816 C1.8245893,0.0291467939 1.96449391,0 2.11605723,0 L8.88394277,0 C9.03550609,0 9.1754107,0.0291467939 9.3036566,0.0874403816 C9.40858506,0.145733969 9.50476948,0.230259671 9.59220986,0.341017488 C9.67965024,0.451775305 9.72337043,0.61791203 9.72337043,0.839427663 L9.72337043,1.9936407 C9.72337043,2.11022787 9.70005299,2.21515633 9.65341812,2.30842607 C9.61844197,2.3900371 9.56306306,2.4599894 9.4872814,2.51828299 C9.41149974,2.57657658 9.29199788,2.60572337 9.12877583,2.60572337 L1.88871224,2.60572337 L1.88871224,2.60572337 Z M11,12.36407 C11,12.6205617 10.9533651,12.8537361 10.8600954,13.063593 C10.7784844,13.2384738 10.6531532,13.3958665 10.4841017,13.5357711 C10.3150503,13.6756757 10.073132,13.745628 9.75834658,13.745628 L1.25914149,13.745628 C0.932697403,13.745628 0.687864335,13.6756757 0.524642289,13.5357711 C0.361420244,13.3958665 0.23900371,13.2384738 0.157392687,13.063593 C0.0641229465,12.8537361 0.0116587175,12.6205617 0,12.36407 L0,5.82352941 C0,5.43879173 0.0699523052,5.16481187 0.209856916,5.00158983 C0.349761526,4.83836778 0.478007419,4.69846317 0.594594595,4.58187599 L1.83624801,3.42766296 L9.40858506,3.42766296 L10.4054054,4.58187599 C10.5219926,4.69846317 10.6502385,4.83836778 10.7901431,5.00158983 C10.9300477,5.16481187 11,5.43879173 11,5.82352941 L11,12.36407 L11,12.36407 Z M8.2718601,7.85214626 L6.43561208,7.85214626 L6.43561208,5.99841017 L4.56438792,5.99841017 L4.56438792,7.85214626 L2.7281399,7.85214626 L2.7281399,9.72337043 L4.56438792,9.72337043 L4.56438792,11.5596184 L6.43561208,11.5596184 L6.43561208,9.72337043 L8.2718601,9.72337043 L8.2718601,7.85214626 L8.2718601,7.85214626 Z" id="Shape"></path>
                </g>
            </g>
        </g>
    </g>
</svg>