<?xml version="1.0" encoding="UTF-8" standalone="no"?>
<svg width="30px" height="30px" viewBox="0 0 30 30" version="1.1" xmlns="http://www.w3.org/2000/svg" xmlns:xlink="http://www.w3.org/1999/xlink">
    <!-- Generator: Sketch 42 (36781) - http://www.bohemiancoding.com/sketch -->
    <title>Shape</title>
    <desc>Created with Sketch.</desc>
    <defs></defs>
    <g id="Page-1" stroke="none" stroke-width="1" fill="none" fill-rule="evenodd">
        <g id="住院医疗审核" transform="translate(-388.000000, -131.000000)" fill="#FE5D5C">
            <g id="Group-38" transform="translate(243.000000, 96.000000)">
                <g id="弹框" transform="translate(88.000000, 35.000000)">
                    <g id="弹出" transform="translate(18.000000, 0.000000)">
                        <g id="Group-37">
                            <path d="M53.9999546,30 C45.7154701,30 39,23.2845299 39,15.0000151 C39,6.71550037 45.7154701,0 53.9999546,0 C62.2833786,0 68.9999697,6.71550037 68.9999697,15.0000151 C68.9999697,23.2845299 62.2833786,30 53.9999546,30 L53.9999546,30 Z M55.20006,6.04709527 C54.887566,5.71290788 54.4882681,5.54578388 54.0021361,5.54578388 C53.5160343,5.54578388 53.1167667,5.71508934 52.8042121,6.05360936 C52.4917484,6.39212937 52.3354711,6.80881834 52.3354711,7.30361567 C52.3354711,7.73763511 52.4765388,9.19597078 52.7586438,11.6785923 C53.0407792,14.1612139 53.2773463,16.5613944 53.4682846,18.8791037 L54.4839053,18.8791037 C54.7008998,16.5613944 54.9526463,14.1612139 55.2391142,11.6785923 C55.5255519,9.19597075 55.6688314,7.73760483 55.6688314,7.30361567 C55.6688313,6.80015309 55.512554,6.38131298 55.20006,6.04709527 L55.20006,6.04709527 Z M55.1848504,21.5809619 C54.8539352,21.2500164 54.4600303,21.0839831 54.002136,21.0839831 C53.5442417,21.0839831 53.1503975,21.2500164 52.8194217,21.5809619 C52.4884761,21.9119074 52.3235336,22.3057517 52.3235336,22.7637066 C52.3235336,23.2215706 52.4884761,23.6111125 52.8194217,23.9333625 C53.1503975,24.2567638 53.5442417,24.4173131 54.002136,24.4173131 C54.4600303,24.4173131 54.8539352,24.2567638 55.1848504,23.9333625 C55.5158262,23.6110822 55.6817989,23.2215706 55.6817989,22.7637066 C55.6818292,22.3057517 55.5158262,21.9119074 55.1848504,21.5809619 L55.1848504,21.5809619 Z" id="Shape"></path>
                        </g>
                    </g>
                </g>
            </g>
        </g>
    </g>
</svg>